<svg id="Layer_1" data-name="Layer 1" xmlns="http://www.w3.org/2000/svg" width="64" height="64" viewBox="0 0 64 64"><defs><style>.cls-1{fill:#95c11f;}.cls-2{fill:#fff;}</style></defs><title>benefits</title><rect class="cls-1" width="64" height="64"/><path class="cls-2" d="M38.65,36.36a4.2,4.2,0,0,0-.43-0.2s-0.82-.42-0.9-3.38,0.74-3.46.74-3.46a4.13,4.13,0,1,0-6-3s0.2,1-2.32,2.57-3.58.89-3.58,0.89L26,29.64a4.13,4.13,0,1,0,.64,6.87s0.89-.7,3.53.72c2.09,1.12,2.4,2.22,2.44,2.63A4.13,4.13,0,1,0,38.65,36.36ZM34,36.9c-0.33.12-1.29,0.25-3.29-.83-2.17-1.17-2.5-2.14-2.54-2.44a4.07,4.07,0,0,0,0-1.06v0s-0.18-.95,2.31-2.49c2.23-1.38,3.24-1.11,3.43-1l0.38,0.23a4.14,4.14,0,0,0,.77.31c0.31,0.29.87,1.12,0.93,3.3s-0.58,3-.94,3.34A4.1,4.1,0,0,0,34,36.9Z"/><path class="cls-2" d="M54.25,12H9.75A1.75,1.75,0,0,0,8,13.75v36.5A1.75,1.75,0,0,0,9.75,52h44.5A1.75,1.75,0,0,0,56,50.25V13.75A1.75,1.75,0,0,0,54.25,12ZM54,50h-44L10,14H54V50Z"/></svg>